<svg width="18" height="17" xmlns="http://www.w3.org/2000/svg" xmlns:xlink="http://www.w3.org/1999/xlink" overflow="hidden"><g transform="translate(-120 -8)"><path d="M136.5 9C136.776 9 137 9 137 9L137 11C137 11 136.776 11 136.5 11L121.5 11C121.224 11 121 11 121 11L121 9C121 9 121.224 9 121.5 9Z" fill="#FF8F3F" fill-rule="evenodd"/><path d="M136.5 15C136.776 15 137 15 137 15L137 17C137 17 136.776 17 136.5 17L121.5 17C121.224 17 121 17 121 17L121 15C121 15 121.224 15 121.5 15Z" fill="#FF8F3F" fill-rule="evenodd"/><path d="M136.5 22C136.776 22 137 22 137 22L137 24C137 24 136.776 24 136.5 24L121.5 24C121.224 24 121 24 121 24L121 22C121 22 121.224 22 121.5 22Z" fill="#FF8F3F" fill-rule="evenodd"/></g></svg>